<?xml version="1.0" encoding="UTF-8" standalone="no"?>
<?xml-stylesheet type="text/css" href="/applications/Pricing/CSS/svg.css" ?>
<svg width="100px" height="100px" viewBox="0 0 100 100" version="1.1" xmlns="http://www.w3.org/2000/svg" xmlns:xlink="http://www.w3.org/1999/xlink" id="logs">
    <g transform="translate(12.000000, 0.000000)">
        <path d="M72.371134,0 L0,0 L0,92.8571429 L41.6134021,92.8571429 C45.5938144,97.1964286 51.4196907,100 57.8969072,100 C69.8924227,100 79.1872559,90.589233 79.1872559,78.75 C79.1872559,72.1875 76.8219588,66.5178571 72.371134,62.5892857 L72.371134,0 Z M13.5,68.0625 L39.4997559,68.0625 C37.5835059,71.3153864 36.6245117,75.3470909 36.6245117,79.375 C36.6245117,81.9522727 37.158125,84.6988636 38,87 L6,87 L6,6 L66,6 L66,58.4375 C64.1247559,57.625 63.0622559,57 58.1247559,57 C52.9997559,57 46.7497559,58.9375 43.3747559,62.1875 L13.5,62.1875 L13.5,68.0625 Z M57.8969072,93.7857143 C49.3847452,93.7857143 42.4553435,86.8781696 42.4553435,78.3928571 C42.4553435,69.9075446 49.3847452,63 57.8969072,63 C66.4090692,63 73.338471,69.9075446 73.338471,78.3928571 C73.338471,86.8781696 66.4090692,93.7857143 57.8969072,93.7857143 L57.8969072,93.7857143 Z"></path>
        <rect x="14.4742268" y="46.8928571" width="43.4226804" height="6"></rect>
        <rect x="14.4742268" y="32.4642857" width="43.4226804" height="6"></rect>
        <rect x="14.4742268" y="18.0357143" width="43.4226804" height="6"></rect>
        <polygon points="60.2495117 70.3392857 54.9995117 70.3392857 54.9995117 79.3571433 54.9995117 84.3749999 59.6870117 84.3749999 65.2460938 84.3749999 65.2460938 79.3571433 60.2495117 79.3571433"></polygon>
    </g>
</svg>